<?xml version="1.0" encoding="UTF-8"?>
<svg id="Layer_2" data-name="Layer 2" xmlns="http://www.w3.org/2000/svg" xmlns:xlink="http://www.w3.org/1999/xlink" viewBox="0 0 52.61 27.83">
  <defs>
    <style>
      .cls-1 {
        fill: url(#linear-gradient-2);
      }

      .cls-2 {
        fill: url(#linear-gradient-5);
      }

      .cls-3 {
        fill: url(#linear-gradient-3);
      }

      .cls-4 {
        fill: url(#linear-gradient);
      }

      .cls-5 {
        fill: url(#linear-gradient-4);
      }
    </style>
    <linearGradient id="linear-gradient" x1="0" y1="14.52" x2="15.17" y2="14.52" gradientUnits="userSpaceOnUse">
      <stop offset="0" stop-color="#00e5ff"/>
      <stop offset=".12" stop-color="#29b8fe"/>
      <stop offset=".29" stop-color="#5e81fd"/>
      <stop offset=".46" stop-color="#8952fd"/>
      <stop offset=".62" stop-color="#ab2efc"/>
      <stop offset=".76" stop-color="#c415fc"/>
      <stop offset=".9" stop-color="#d205fc"/>
      <stop offset="1" stop-color="#d800fc"/>
    </linearGradient>
    <linearGradient id="linear-gradient-2" x1="37.44" x2="52.61" xlink:href="#linear-gradient"/>
    <linearGradient id="linear-gradient-3" x1=".05" y1="6.43" x2="22.57" y2="6.43" xlink:href="#linear-gradient"/>
    <linearGradient id="linear-gradient-4" x1="27.35" y1="20.34" x2="52.61" y2="20.34" xlink:href="#linear-gradient"/>
    <linearGradient id="linear-gradient-5" x1="-23.08" y1="-1024.81" x2="29.6" y2="-1024.81" gradientTransform="translate(-22.43 -1009.73) rotate(-2.54) scale(1 -1)" xlink:href="#linear-gradient"/>
  </defs>
  <g id="Layer_1-2" data-name="Layer 1">
    <g>
      <path class="cls-4" d="M.76,8.4c-.08,.17-1.18,4.71-.59,7.95,.59,3.24,2.84,5.93,5.89,7.09,3.05,1.16,6.27,.37,6.27,.37,0,0-6.1-3.19-5.57-9.23,.62-7.03,8.41-6.54,8.41-6.54,0,0-3.7-3.61-7.5-3-3.8,.61-6.43,2.32-6.91,3.36Z"/>
      <path class="cls-1" d="M51.85,8.4c.08,.17,1.18,4.71,.59,7.95-.59,3.24-2.84,5.93-5.89,7.09-3.05,1.16-6.27,.37-6.27,.37,0,0,6.1-3.19,5.57-9.23-.62-7.03-8.41-6.54-8.41-6.54,0,0,3.7-3.61,7.5-3,3.8,.61,6.43,2.32,6.91,3.36Z"/>
      <path class="cls-3" d="M22.57,5.46c-.1-.09-.22-.2-.36-.32-.86-.73-2.47-1.95-4.4-3.07C13.46-.46,8.57-.98,4.41,2.26-.39,6.01,.12,11.27,.05,12.87c.04-1.03,1.8-2.9,2.44-3.65,.76-.89,1.62-1.7,2.61-2.28,1.67-.99,3.55-1.2,5.4-.74,2.75,.69,5.29,2.3,7.15,3.88"/>
      <path class="cls-5" d="M48.43,20.18c-1.84,1.44-4.09,1.94-6.31,1.37-4.2-1.08-7.53-5.1-9.92-8.7-.22,.21-1.45,1.44-1.66,1.65-1.41,1.37-1.77,1.78-3.19,3.18,2.02,3,4.33,6.15,7.46,7.98,2.52,1.47,5.42,2.52,8.32,2.06,4.1-.65,7.89-3.82,9.02-8.14,.4-1.53,.45-3.11,.45-4.69-.98,2.31-3.22,4.54-4.18,5.29Z"/>
      <path class="cls-2" d="M52.61,12.87c-.04-1.03-1.8-2.9-2.44-3.65-.76-.89-1.62-1.7-2.61-2.28-1.67-.99-3.55-1.2-5.4-.74-4.5,1.13-8.32,5.09-11.63,8.31-4.02,3.91-7.88,8.35-12.69,11.16-2.52,1.47-5.42,2.52-8.32,2.06-4.1-.65-7.89-3.82-9.02-8.14C.1,18.04,.05,16.46,.05,14.88c.98,2.31,3.22,4.54,4.18,5.29,1.84,1.44,4.09,1.94,6.31,1.37,4.61-1.18,8.48-5.29,11.87-8.58,2.17-2.07,4.22-4.1,6.29-6.11,1.88-1.83,3.91-3.48,6.15-4.79,4.34-2.53,9.24-3.05,13.4,.19,4.8,3.75,4.29,9.01,4.36,10.6Z"/>
    </g>
  </g>
</svg>