<?xml version="1.0" encoding="UTF-8"?>
<svg id="Layer_2" data-name="Layer 2" xmlns="http://www.w3.org/2000/svg" xmlns:xlink="http://www.w3.org/1999/xlink" viewBox="0 0 1137.01 249.74">
  <defs>
    <style>
      .cls-1 {
        fill: url(#linear-gradient-2);
      }

      .cls-2 {
        fill: #fff;
      }

      .cls-3 {
        fill: url(#linear-gradient-5);
      }

      .cls-4 {
        fill: url(#linear-gradient-3);
      }

      .cls-5 {
        fill: url(#linear-gradient);
      }

      .cls-6 {
        fill: url(#linear-gradient-4);
      }
    </style>
    <linearGradient id="linear-gradient" x1="437.4" y1="133.35" x2="522.78" y2="133.35" gradientUnits="userSpaceOnUse">
      <stop offset="0" stop-color="#00e5ff"/>
      <stop offset=".12" stop-color="#29b8fe"/>
      <stop offset=".29" stop-color="#5e81fd"/>
      <stop offset=".46" stop-color="#8952fd"/>
      <stop offset=".62" stop-color="#ab2efc"/>
      <stop offset=".76" stop-color="#c415fc"/>
      <stop offset=".9" stop-color="#d205fc"/>
      <stop offset="1" stop-color="#d800fc"/>
    </linearGradient>
    <linearGradient id="linear-gradient-2" x1="648.04" x2="733.41" xlink:href="#linear-gradient"/>
    <linearGradient id="linear-gradient-3" x1="437.69" y1="87.83" x2="564.4" y2="87.83" xlink:href="#linear-gradient"/>
    <linearGradient id="linear-gradient-4" x1="591.31" y1="166.07" x2="733.41" y2="166.07" xlink:href="#linear-gradient"/>
    <linearGradient id="linear-gradient-5" x1="450.65" y1="728.39" x2="747.09" y2="728.39" gradientTransform="translate(19.64 884.18) rotate(-2.54) scale(1 -1)" xlink:href="#linear-gradient"/>
  </defs>
  <g id="Layer_1-2" data-name="Layer 1">
    <g>
      <path class="cls-2" d="M0,54.44H42.65v21.61c10.38-14.31,24.41-24.41,46.86-24.41,35.08,0,68.47,27.5,68.47,77.73v.56c0,50.23-32.83,77.73-68.47,77.73-22.73,0-36.76-10.38-46.86-22.45v64.54H0V54.44Zm115.33,75.48v-.56c0-24.97-16.84-41.53-36.76-41.53s-36.48,16.56-36.48,41.53v.56c0,24.97,16.56,41.53,36.48,41.53s36.76-16.27,36.76-41.53Z"/>
      <path class="cls-2" d="M170.55,54.44h42.65v30.31c8.7-20.48,22.45-34.23,47.98-33.11v44.62h-2.24c-28.34,0-45.74,16.84-45.74,53.03v55.56h-42.65V54.44Z"/>
      <path class="cls-2" d="M263.14,130.48v-.56c0-43.21,34.8-78.29,81.66-78.29s81.1,34.23,81.1,77.73v.56c0,43.21-34.8,78.29-81.66,78.29s-81.1-34.23-81.1-77.73Zm120.66,0v-.56c0-22.17-15.99-41.53-39.57-41.53s-39,18.52-39,40.97v.56c0,22.17,15.99,41.53,39.57,41.53s39-18.52,39-40.97Z"/>
      <path class="cls-2" d="M748.28,0h42.65V75.76c9.82-12.63,22.73-24.13,44.05-24.13,32.55,0,51.07,21.05,51.07,55.84v97.37h-42.65V120.94c0-20.2-9.26-30.59-25.82-30.59s-26.66,10.38-26.66,30.59v83.9h-42.65V0Z"/>
      <path class="cls-2" d="M895.26,161.63v-.56c0-32.55,24.97-47.98,60.61-47.98,15.43,0,25.82,2.53,36.76,6.17v-2.53c0-17.96-10.94-27.5-32.27-27.5-16.56,0-27.78,2.81-41.53,8.14l-10.66-32.55c16.56-7.01,32.83-12.07,58.37-12.07,23.57,0,39.85,5.89,50.79,16.84,11.22,11.22,16.28,27.78,16.28,47.98v87.27h-41.25v-16.28c-10.38,11.5-24.41,19.08-45.46,19.08-28.34,0-51.63-16-51.63-46.02Zm97.93-9.82v-7.58c-7.58-3.37-16.84-5.61-27.22-5.61-18.24,0-29.46,7.3-29.46,20.76v.56c0,11.5,9.54,18.24,23.29,18.24,20.21,0,33.39-10.66,33.39-26.38Z"/>
      <path class="cls-2" d="M1059,162.19V90.92h-17.96V54.44h17.96V15.99h42.65V54.44h35.36v36.48h-35.36v64.26c0,9.82,4.49,14.59,13.75,14.59,7.58,0,14.59-1.68,21.04-5.33v34.23c-8.98,5.33-19.36,8.7-33.67,8.7-25.82,0-43.77-10.38-43.77-45.18Z"/>
      <path class="cls-5" d="M441.69,98.91c-.45,.96-6.63,26.49-3.32,44.73,3.32,18.24,15.98,33.38,33.16,39.91,17.18,6.54,35.27,2.06,35.27,2.06,0,0-34.32-17.94-31.35-51.96,3.46-39.57,47.32-36.82,47.32-36.82,0,0-20.8-20.3-42.2-16.86-21.4,3.44-36.17,13.08-38.88,18.92Z"/>
      <path class="cls-1" d="M729.13,98.91c.45,.96,6.63,26.49,3.32,44.73-3.32,18.24-15.98,33.38-33.16,39.91-17.18,6.54-35.27,2.06-35.27,2.06,0,0,34.32-17.94,31.35-51.96-3.46-39.57-47.32-36.82-47.32-36.82,0,0,20.8-20.3,42.2-16.86,21.4,3.44,36.17,13.08,38.88,18.92Z"/>
      <path class="cls-4" d="M564.4,82.37c-.55-.52-1.23-1.13-2.03-1.81-4.82-4.13-13.93-10.98-24.76-17.27-24.45-14.21-51.98-17.19-75.39,1.07-27.03,21.09-24.16,50.69-24.53,59.66,.24-5.82,10.13-16.32,13.74-20.54,4.27-5,9.11-9.55,14.67-12.85,9.38-5.58,19.96-6.78,30.36-4.16,15.49,3.89,29.74,12.95,40.26,21.84"/>
      <path class="cls-6" d="M709.92,165.16c-10.36,8.1-23,10.92-35.52,7.71-23.61-6.06-42.36-28.7-55.8-48.93-1.21,1.19-8.17,8.12-9.36,9.27-7.92,7.7-9.97,10-17.92,17.91,11.36,16.88,24.37,34.6,41.99,44.89,14.19,8.28,30.47,14.18,46.81,11.6,23.07-3.64,44.41-21.49,50.76-45.82,2.25-8.62,2.55-17.52,2.55-26.4-5.53,13.01-18.09,25.56-23.5,29.79Z"/>
      <path class="cls-3" d="M733.41,124.02c-.24-5.82-10.13-16.32-13.74-20.54-4.27-5-9.11-9.55-14.67-12.85-9.38-5.58-19.96-6.78-30.36-4.16-25.33,6.37-46.82,28.65-65.42,46.74-22.63,22.01-44.32,46.98-71.43,62.79-14.19,8.28-30.47,14.18-46.81,11.6-23.07-3.64-44.41-21.49-50.76-45.82-2.25-8.62-2.55-17.52-2.55-26.4,5.53,13.01,18.09,25.56,23.5,29.79,10.36,8.1,23,10.92,35.52,7.71,25.94-6.66,47.73-29.77,66.78-48.28,12.22-11.63,23.75-23.07,35.37-34.37,10.58-10.28,22.01-19.59,34.63-26.93,24.45-14.21,51.98-17.19,75.39,1.07,27.03,21.09,24.16,50.69,24.53,59.66Z"/>
    </g>
  </g>
</svg>