<?xml version="1.0" encoding="UTF-8"?>
<svg id="Layer_2" data-name="Layer 2" xmlns="http://www.w3.org/2000/svg" viewBox="0 0 182.46 182.85">
  <defs>
    <style>
      .cls-1 {
        fill: #fff;
      }
    </style>
  </defs>
  <g id="Layer_1-2" data-name="Layer 1">
    <g>
      <path class="cls-1" d="M90.06,182.85c-2.63-1.04-5.33-1.95-7.88-3.15-3.84-1.8-7.25-4.18-9.88-7.63-3.64-4.78-4.6-10.09-3.75-15.96,.95-6.54,3.72-12.24,7.67-17.38,3.93-5.09,8.91-9.09,14.17-12.74,.63-.44,1.13-.41,1.77,.03,8.79,6.06,16.35,13.18,20.1,23.54,1.37,3.79,2.25,7.69,1.97,11.73-.37,5.41-2.6,9.99-6.68,13.58-4.35,3.83-9.42,6.31-15.06,7.62-.17,.04-.3,.23-.45,.34h-1.98Zm1.11-50.17c-1.57,1.42-3.02,2.66-4.39,3.98-3.93,3.79-7.02,8.17-8.85,13.33-1.83,5.16-2.2,10.36,.4,15.43,2.65,5.15,7.13,8.08,12.4,9.98,.42,.15,1.05,.09,1.44-.13,2.42-1.29,5.01-2.38,7.15-4.05,5.24-4.08,7.51-9.71,6.49-16.2-1.48-9.45-7.09-16.43-14.64-22.35Z"/>
      <path class="cls-1" d="M92.43,0c2.47,.93,5.01,1.71,7.4,2.82,4.65,2.16,8.73,5.09,11.52,9.55,2.74,4.38,3.35,9.12,2.62,14.16-1,6.87-3.9,12.88-8.29,18.15-3.89,4.67-8.45,8.68-13.56,12.01-.43,.28-1.36,.33-1.75,.06-7.75-5.47-14.8-11.62-18.88-20.47-2.02-4.38-3.35-8.95-3.25-13.83,.12-6.28,2.71-11.39,7.56-15.36,4.08-3.33,8.72-5.51,13.82-6.74,.16-.04,.28-.23,.42-.35,.79,0,1.59,0,2.38,0Zm-1.17,50.04c.61-.52,1.09-.97,1.6-1.38,5.26-4.25,9.3-9.44,11.66-15.81,1.81-4.88,2.21-9.86,.01-14.73-2.52-5.58-7.22-8.72-12.75-10.77-.46-.17-1.14,.03-1.66,.22-3.76,1.4-7.05,3.52-9.67,6.59-2.22,2.6-3.54,5.65-3.87,9.05-.42,4.35,.64,8.46,2.5,12.36,2.78,5.82,6.96,10.48,12.17,14.47Z"/>
      <path class="cls-1" d="M57.26,91.51c-1.72,2.28-3.32,4.61-5.14,6.76-4.46,5.25-9.48,9.84-15.83,12.81-5.22,2.45-10.68,3.69-16.41,3.1-5.03-.52-9.18-2.99-12.46-6.81-3.53-4.09-5.77-8.86-7.16-14.07-.41-1.53-.28-2.95,.15-4.43,1.67-5.76,4.27-10.99,8.65-15.17,2.96-2.83,6.47-4.59,10.61-5.11,8.14-1.02,15.24,1.72,21.83,6.05,5.98,3.93,10.52,9.32,14.59,15.12,.37,.53,.73,1.08,1.18,1.74Zm-7.36-.1c-4.41-5.7-9.64-10.36-16.45-13.05-4.43-1.75-8.96-2.55-13.62-1-6.6,2.19-10.24,7.21-12.6,13.39-.18,.47,0,1.2,.23,1.7,.83,1.78,1.6,3.61,2.66,5.25,3.63,5.59,8.79,8.57,15.53,8.39,4.62-.13,8.78-1.84,12.72-4.17,4.55-2.7,8.22-6.34,11.51-10.52Z"/>
      <path class="cls-1" d="M125.32,91.27c5.12-7.25,10.61-14.01,18.53-18.34,6-3.29,12.34-5.17,19.23-4.27,4.95,.65,8.97,3.17,12.16,6.98,3.37,4.03,5.57,8.64,6.94,13.71,.52,1.92,.22,3.62-.31,5.37-1.44,4.75-3.63,9.11-6.95,12.83-4.32,4.86-9.75,7.16-16.27,6.77-9.36-.56-17.01-4.73-23.61-11.16-3.32-3.23-6.33-6.7-8.9-10.55-.28-.42-.54-.87-.83-1.35Zm7.23,.12c.44,.51,.85,.94,1.22,1.4,3.97,4.98,8.82,8.84,14.68,11.36,4.7,2.03,9.59,2.77,14.56,1.1,6.37-2.15,9.89-7.07,12.18-13.06,.2-.53,.07-1.32-.17-1.87-.76-1.73-1.47-3.53-2.5-5.1-4.48-6.83-11.18-9.92-19.13-8.15-8.81,1.96-15.37,7.37-20.83,14.33Z"/>
      <path class="cls-1" d="M113.52,129.59c.54-4.48,1.03-8.71,1.55-12.94,.09-.69,.38-1.17,1.22-1.29,2.26-.32,4.5-.97,6.76-1.08,3.53-.17,7.04-.5,10.64-.15,7.42,.72,14.21,2.92,20.09,7.48,4.09,3.17,6.86,7.24,7.75,12.56,.77,4.64-.08,8.98-1.41,13.33-.32,1.06-.88,2.04-1.2,3.1-1.55,5.11-5.54,7.49-10.17,9.2-4.61,1.71-9.36,2.54-14.25,1.97-4.01-.46-7.49-2.26-10.43-5.03-4.77-4.51-7.54-10.18-8.97-16.47-.81-3.56-1.09-7.23-1.58-10.69Zm13.23-9.56c-1.7,.16-3.4,.37-5.1,.48-.98,.06-1.4,.5-1.44,1.45-.27,5.65-.23,11.27,1.61,16.72,1.61,4.77,4.05,9.04,8.21,11.98,4.99,3.54,10.49,3.66,16.3,2.13,3.52-.92,5.37-2.86,6.31-6.27,2.75-9.97-.6-17.83-9.6-22.62-5.06-2.69-10.56-3.75-16.29-3.87Z"/>
      <path class="cls-1" d="M68.97,129.41c-.29,8.42-2.24,16.21-7.01,23.21-3.33,4.89-7.8,8.23-13.67,9.07-4.22,.61-8.54,.28-12.61-1.29-2.43-.94-4.76-2.13-7.15-3.17-1.52-.66-2.48-1.81-3.25-3.25-2.92-5.44-4.9-11.13-4.62-17.4,.2-4.53,1.75-8.55,4.83-11.93,5.26-5.77,12.02-8.63,19.53-10.04,6.89-1.29,13.74-.49,20.57,.48,1.09,.16,1.79,.62,1.92,2.02,.36,4.11,.96,8.19,1.47,12.29Zm-6.85-8.7c-3.91-.71-7.68-.67-11.5-.19-5.85,.73-11.19,2.59-15.73,6.4-3.46,2.9-5.45,6.69-5.89,11.18-.38,3.92,.4,7.68,1.94,11.3,.44,1.02,1,1.74,2.07,2.14,2.51,.94,5.01,1.75,7.72,2.01,6.97,.69,12.32-2.03,16.25-7.59,5.33-7.55,6-16.13,5.14-25.26Z"/>
      <path class="cls-1" d="M68.93,53.4c-.49,4.22-.98,8.52-1.5,12.81-.08,.69-.4,1.14-1.24,1.25-2.4,.31-4.77,.95-7.18,1.1-8.25,.54-16.4,.18-24.02-3.57-4.73-2.32-8.96-5.26-11.66-9.95-2.42-4.19-3.07-8.66-2.41-13.45,.65-4.74,2.29-9.09,4.63-13.19,.62-1.08,1.64-2.08,2.7-2.74,4.99-3.06,10.48-4.84,16.3-4.97,4.95-.11,9.55,1.38,13.36,4.84,5.53,5.01,8.49,11.4,9.89,18.56,.59,3.01,.75,6.11,1.12,9.3Zm-12.82,9.36c1.18-.13,2.82-.31,4.45-.49,1.6-.17,1.71-.26,1.72-1.92,.03-2.49,.08-4.99,0-7.48-.18-5.26-1.66-10.14-4.31-14.7-4.18-7.19-12.13-10.91-20.5-8.45-6.61,1.94-5.94,1.29-7.86,7.93-2.2,7.63,.57,14.94,7.1,19.51,5.69,3.98,12.16,5.27,19.41,5.6Z"/>
      <path class="cls-1" d="M113.56,53.29c.23-8.22,2.09-15.88,6.69-22.75,3.19-4.75,7.36-8.26,13.1-9.34,5-.95,9.95-.26,14.68,1.53,2.19,.83,4.31,1.89,6.34,3.06,1.02,.59,1.98,1.55,2.59,2.56,2.59,4.31,4.3,8.99,4.83,13.98,.8,7.52-1.71,13.87-7.68,18.62-5.12,4.07-11.02,6.41-17.5,7.28-5.84,.78-11.66,.67-17.46-.36-.96-.17-1.93-.36-2.9-.43-.87-.05-1.11-.54-1.19-1.27-.49-4.3-1-8.59-1.49-12.89Zm6.85,8.82c3.9,.5,7.4,.69,10.98,.22,4.88-.63,9.51-1.9,13.63-4.58,3.23-2.1,5.91-4.79,7.34-8.52,1.88-4.9,1.4-9.7-.28-14.56-.71-2.05-1.83-3.28-3.83-4.01-5.57-2.02-11.09-2.54-16.5,.42-4.47,2.44-7.23,6.36-9.14,10.95-1.91,4.6-2.64,9.44-2.61,14.39,0,1.89,.27,3.78,.41,5.7Z"/>
      <path class="cls-1" d="M93.54,86.05c.6-.15,1.03-.32,1.48-.36,1.42-.14,1.79,.16,1.76,1.61-.02,1.24-.01,2.25,1.4,2.89,.95,.43,.91,1.61-.09,2.24-1.12,.7-1.42,1.49-1.26,2.76,.21,1.68-.3,2.03-2.04,1.67-.87-.18-1.41-.02-1.95,.79-1.07,1.62-1.94,1.61-3.11-.04-.56-.79-1.09-.92-1.99-.66-1.72,.48-2.24,.07-2.03-1.7,.14-1.16,.07-1.91-1.12-2.54-1.22-.65-1.31-1.55-.23-2.32,1.21-.85,1.41-1.82,1.28-3.17-.13-1.34,.51-1.81,1.86-1.41,.86,.25,1.4,.32,2.01-.51,1.38-1.88,2.05-1.83,3.47,.05,.16,.21,.32,.41,.54,.7Zm.69,5.29c-.04-1.5-1.44-2.89-2.91-2.9-1.6,0-3.03,1.43-3,3.01,.03,1.53,1.61,3.04,3.09,2.93,1.44-.1,2.86-1.63,2.82-3.05Z"/>
      <path class="cls-1" d="M108.19,68.47c-3.31-3.13-6.99-5.04-11.68-4.93,1.82-1.67,3.47-3.6,5.51-4.94,1.79-1.18,5.32,.17,5.87,2.59,.03,.13,0,.26,.01,.4,.09,2.22,.19,4.44,.29,6.88Z"/>
      <path class="cls-1" d="M107.25,115.01c-.17,2.22-.27,4.44-.51,6.65-.29,2.63-3.9,4.16-6.02,2.6-.16-.12-.28-.27-.43-.41-1.51-1.36-3.02-2.71-4.85-4.36,4.66-.09,8.41-1.56,11.4-4.76l.42,.26Z"/>
      <path class="cls-1" d="M87.07,63.16c-4.65,.12-8.43,1.59-11.43,4.86-.12-.08-.23-.15-.35-.23,.17-2.46,.21-4.93,.54-7.36,.29-2.1,4.17-3.31,6.04-1.99,.37,.26,.7,.59,1.04,.9,1.29,1.18,2.58,2.37,4.16,3.82Z"/>
      <path class="cls-1" d="M74.59,114.47c3.03,2.9,6.77,4.54,11.56,4.56-1.99,1.8-3.62,3.59-5.55,4.96-2.27,1.61-5.94-.58-6-3.42-.04-2.03,0-4.06,0-6.1Z"/>
      <path class="cls-1" d="M114.55,108.34c2.88-3.38,4.21-7.13,4.53-11.77,1.82,2.03,3.66,3.63,4.94,5.6,1.45,2.23-.75,5.62-3.38,5.72-2.03,.08-4.05,.29-6.08,.45Z"/>
      <path class="cls-1" d="M62.98,95.6c.3,4.53,1.66,8.25,4.95,11.42-2.38,0-4.52,.19-6.61-.04-3.15-.36-4.57-4.03-2.59-6.53,1.26-1.59,2.67-3.06,4.25-4.85Z"/>
      <path class="cls-1" d="M114.48,75.37c2.79,.15,5.26-.03,7.58,.48,2.19,.49,3.5,3.73,2.12,5.96-.68,1.1-1.67,2.02-2.55,2.99-.6,.67-1.25,1.3-2.15,2.22-.07-4.69-1.88-8.32-5-11.66Z"/>
      <path class="cls-1" d="M68.4,74.57c-3.42,3.25-4.69,7.01-4.82,11.62-1.77-1.94-3.27-3.56-4.73-5.21-1.38-1.56-.25-6.13,2.51-6.19,.59-.01,1.17-.19,1.76-.21,1.63-.03,3.27-.01,5.28-.01Z"/>
      <path class="cls-1" d="M87.56,82.49c-4.44-2.64-6.28-6.74-5.21-11.37,3.9,.19,5.89,4.83,5.21,11.37Z"/>
      <path class="cls-1" d="M94.97,100.3c4.13,2.96,7.19,7.27,5.07,11.43-3.86-.48-5.79-5.18-5.07-11.43Z"/>
      <path class="cls-1" d="M111.83,99.63c-4.12,2.31-8.26-.22-11.49-4.57,5.68-1.01,10.46,.63,11.49,4.57Z"/>
      <path class="cls-1" d="M82.38,95.23c-3.63,4.64-7.39,6.68-11.72,4.93,.88-2.83,2.91-4.44,5.7-4.87,1.91-.3,3.91-.06,6.03-.06Z"/>
      <path class="cls-1" d="M111.79,82.77c-1.42,4.03-5.12,5.47-11.42,4.74,3.11-4.58,7.2-6.76,11.42-4.74Z"/>
      <path class="cls-1" d="M82.84,112.11c-2.2-5.45,1.23-8.48,4.5-11.63,1.34,5.17-.15,10.14-4.5,11.63Z"/>
      <path class="cls-1" d="M94.89,82.35c-.72-7.03,.84-10.27,4.62-11.63,2.24,3.49,.23,7.94-4.62,11.63Z"/>
      <path class="cls-1" d="M70.62,83.08c4.41-1.99,7.91,.08,11.55,4.61-4.05,1.11-10.34-.21-11.55-4.61Z"/>
      <path class="cls-1" d="M99.07,81.34c.96,.07,2.14,1.37,2.06,2.29-.08,1.03-1.25,2.05-2.31,2.03-1.11-.02-2.11-1.14-2-2.23,.11-1.05,1.31-2.16,2.25-2.09Z"/>
      <path class="cls-1" d="M93.21,69.48c.03,.93-1.13,2.19-2.07,2.25-.89,.06-2.17-1.13-2.25-2.09-.08-.97,1.02-2.13,2.1-2.21,1.03-.08,2.19,.99,2.23,2.05Z"/>
      <path class="cls-1" d="M105.12,102.82c.04,.99-1.07,2.18-2.07,2.24-.88,.05-2.18-1.16-2.25-2.09-.07-1.04,1.02-2.21,2.07-2.21,1.07,0,2.21,1.05,2.24,2.06Z"/>
      <path class="cls-1" d="M91.49,111.06c1.04,.03,2.13,1.21,2.08,2.25-.04,.89-1.19,2.03-2.08,2.06-.92,.03-2.18-1.21-2.19-2.16-.01-1.06,1.13-2.19,2.19-2.15Z"/>
      <path class="cls-1" d="M91.48,109.86c-1.07,.04-2.22-1.05-2.2-2.09,.01-1.03,1.17-2.21,2.15-2.2,.88,0,2.18,1.38,2.15,2.27-.04,.97-1.09,1.98-2.1,2.02Z"/>
      <path class="cls-1" d="M79.76,101.12c1.44,0,2,.58,1.97,2.03-.03,1.33-.6,1.93-1.88,1.95-1.38,.03-2.07-.62-2.08-1.96-.02-1.44,.55-2.02,2-2.02Z"/>
      <path class="cls-1" d="M99.1,101.14c-1.25,.03-2.01-.78-2.01-2.12,0-1.39,.52-1.93,1.87-1.95,1.36-.02,2.19,.72,2.19,1.94,0,1.21-.86,2.1-2.06,2.13Z"/>
      <path class="cls-1" d="M80.31,89.48c1.17,.02,2.22,1.03,2.18,2.09-.03,.97-1.26,2.05-2.31,2.02-1-.02-2.08-1.24-2.01-2.28,.06-1.07,.98-1.85,2.15-1.84Z"/>
      <path class="cls-1" d="M102.36,93.21c-1.15,0-2.32-.93-2.34-1.9-.02-.98,1.13-2.06,2.2-2.07,1.2,0,2.14,.92,2.11,2.06-.04,1.2-.76,1.89-1.97,1.9Z"/>
      <path class="cls-1" d="M102.56,81.7c-1.25-.05-1.81-.68-1.8-2.02,.01-1.26,.84-2.1,2.04-2.07,1.21,.03,1.98,.9,1.92,2.18-.06,1.31-.8,1.97-2.17,1.92Z"/>
      <path class="cls-1" d="M106.76,108.67c-1.21-.03-2.08-.96-2.03-2.15,.06-1.21,.77-1.84,2.06-1.81,1.13,.02,2.28,1.04,2.26,2-.02,1-1.17,2-2.29,1.97Z"/>
      <path class="cls-1" d="M75.91,104.95c1.25-.03,2.1,.68,2.14,1.81,.05,1.17-.89,2.27-1.97,2.31-1.21,.04-2.29-1.01-2.28-2.22,.01-1.04,.93-1.87,2.11-1.9Z"/>
      <path class="cls-1" d="M93.22,80.47c-.06,1.09-1.16,2.1-2.19,2.03-1.2-.08-1.94-.99-1.86-2.29,.06-.94,1.16-2,2.04-1.97,1.09,.05,2.07,1.13,2.02,2.23Z"/>
      <path class="cls-1" d="M113.17,89.24c1.31,.02,1.9,.62,1.9,1.95,0,1.4-.7,2.08-2.07,2.01-1.33-.07-1.98-.82-1.92-2.2,.06-1.28,.66-1.79,2.09-1.76Z"/>
      <path class="cls-1" d="M76.96,91.55c0,1.04-1.1,2.07-2.18,2.06-1.08-.01-2.14-1.11-2.09-2.16,.05-1,1.05-1.9,2.12-1.91,1.29,0,2.16,.81,2.15,2.02Z"/>
      <path class="cls-1" d="M71.41,91.52c.02,1.36-.66,2.06-2.02,2.08-1.22,.02-1.88-.64-1.94-1.95-.06-1.38,.6-2.03,2.01-2.02,1.36,.02,1.93,.57,1.95,1.88Z"/>
      <path class="cls-1" d="M83.33,81.71c1.31-.03,2.03,.69,2.06,2.06,.03,1.3-.59,1.9-1.93,1.91-1.29,0-2.07-.66-2.13-1.82-.07-1.3,.69-2.11,1.99-2.14Z"/>
      <path class="cls-1" d="M107.82,89.24c1.02,.03,2.05,1.04,2.03,1.98-.02,1.02-1.16,2.02-2.24,1.98-1.21-.04-2.14-.98-2.07-2.09,.07-1.1,1.07-1.92,2.29-1.88Z"/>
      <path class="cls-1" d="M81.48,79.83c.04,1.25-.64,2.1-1.75,2.19-.99,.08-2.26-.97-2.35-1.95-.09-1.02,.96-2.24,2-2.31,1.16-.08,2.06,.8,2.1,2.08Z"/>
      <path class="cls-1" d="M83.72,101.27c-1.24,.04-2.13-.8-2.14-2.01,0-1.27,.79-2.08,2.05-2.07,1.23,0,1.98,.69,2.05,1.87,.07,1.18-.82,2.18-1.96,2.22Z"/>
      <path class="cls-1" d="M75.84,78.13c-1.28,.04-2.18-.8-2.18-2.02,0-1.13,.83-2.01,1.95-2.07,1.21-.07,2.13,.81,2.14,2.06,.01,1.2-.74,2-1.92,2.03Z"/>
      <path class="cls-1" d="M106.53,77.74c-1.43,.02-1.95-.46-1.95-1.82,0-1.34,.77-2.17,2-2.14,1.12,.02,2.15,1.07,2.1,2.15-.04,1.03-.96,1.8-2.15,1.82Z"/>
      <path class="cls-1" d="M89.12,74.9c.03-1.18,.81-1.94,2-1.92,1.23,.02,2.17,.93,2.1,2.05-.07,1.15-1.1,2.07-2.24,2-1.07-.06-1.89-1-1.86-2.13Z"/>
      <path class="cls-1" d="M91.32,104.35c-1.28-.02-2.13-.9-2.05-2.11,.08-1.27,.91-1.96,2.24-1.89,1.12,.06,1.89,.93,1.85,2.09-.04,1.15-.88,1.94-2.04,1.92Z"/>
      <path class="cls-1" d="M58,106.65h-4.78c1.18-1.36,2.22-2.57,3.23-3.72,.51,1.23,1,2.4,1.55,3.72Z"/>
      <path class="cls-1" d="M106.76,124.46c-.07,1.52-.14,2.92-.2,4.31-.16,.07-.32,.15-.49,.22-1.01-.91-2.02-1.81-3.14-2.81,1.31-.59,2.42-1.09,3.83-1.72Z"/>
      <path class="cls-1" d="M107.41,58.36c-1.15-.48-2.26-.94-2.96-1.23,.91-1,1.9-2.09,2.96-3.27v4.49Z"/>
      <path class="cls-1" d="M78.84,125.71c-1.24,1.1-2.29,2.03-3.68,3.26v-4.61c1.08,.39,2.21,.81,3.68,1.35Z"/>
      <path class="cls-1" d="M56.81,78.87c-.96-1.12-1.88-2.19-3.06-3.58,1.78-.15,3.21-.27,4.72-.4-.58,1.39-1.07,2.57-1.66,3.98Z"/>
      <path class="cls-1" d="M79.67,56.46c-1.37,.6-2.56,1.12-3.96,1.73,.13-1.56,.25-3.01,.39-4.73,1.32,1.11,2.4,2.02,3.57,3Z"/>
      <path class="cls-1" d="M124.38,75.77c1.49,.16,2.92,.31,4.79,.51-1.13,1.24-2.09,2.29-3.07,3.38-.59-1.33-1.12-2.54-1.71-3.89Z"/>
      <path class="cls-1" d="M124.33,107.43c.42-1.16,.85-2.34,1.29-3.57,1.02,1.08,2.06,2.19,3.36,3.57h-4.65Z"/>
      <path class="cls-1" d="M91.26,145.89c3.03,3.95,5.07,7.95,4.35,12.87-.36,2.42-1.8,4.17-3.63,5.61-.32,.25-1.22,.19-1.56-.09-2.79-2.23-4.16-5.04-3.65-8.74,.49-3.64,2.19-6.63,4.5-9.65Z"/>
      <path class="cls-1" d="M91.26,17.86c2.94,1.77,4.46,4.34,4.58,7.53,.07,1.71-.31,3.55-.93,5.15-.85,2.17-2.13,4.17-3.4,6.58-3.46-4.31-5.6-8.6-4.49-13.86,.5-2.34,2.26-3.95,4.23-5.4Z"/>
      <path class="cls-1" d="M36.66,91.32c-2.64,2.25-5.46,3.71-8.73,4.42-4.13,.89-7.89-.68-10.03-4.35,2.47-4.57,6.55-5.06,10.37-4.33,3.05,.58,5.74,2.07,8.39,4.26Z"/>
      <path class="cls-1" d="M145.86,91.34c3.6-2.84,7.34-4.76,11.92-4.48,2.83,.18,4.8,1.85,6.54,3.87,.61,.7,.14,1.18-.31,1.7-2.61,3.09-5.81,4.2-9.81,3.22-3.1-.76-5.83-2.1-8.34-4.31Z"/>
      <path class="cls-1" d="M142.97,143.4c-4.66,.89-8.02-.87-10.41-4.69-1.61-2.58-2.37-5.44-2.63-8.73,5.08,.67,9.63,1.95,12.44,6.53,1.25,2.04,1.38,4.22,.6,6.89Z"/>
      <path class="cls-1" d="M52.89,130.25c-.59,2.1-.99,4.16-1.76,6.07-1.37,3.39-3.47,6.21-7.31,7.03-1.32,.28-2.72,.2-4.01,.28-1.5-2.94-.85-6.64,1.7-9.12,2.83-2.76,6.41-3.94,10.26-4.41,.31-.04,.63,.08,1.12,.15Z"/>
      <path class="cls-1" d="M53.01,52.59c-6.03,.09-12.34-3.64-13.47-7.62-.69-2.42-.8-2.7-.12-5.52,5.49-.93,8.81,.82,11.12,5.74,1.06,2.27,1.62,4.78,2.47,7.4Z"/>
      <path class="cls-1" d="M142.98,39.45c1.18,3.21,.31,6.54-2.38,9.06-3.01,2.81-6.73,3.77-10.83,4.29,.45-3.1,1.12-5.91,2.63-8.46,2.18-3.68,5.43-5.85,10.58-4.89Z"/>
    </g>
  </g>
</svg>